<svg id="Calque_1" data-name="Calque 1" xmlns="http://www.w3.org/2000/svg" viewBox="0 0 280 244"><defs><style>.cls-1{fill:#fff;}.cls-2{fill:#2e3342;}</style></defs><title>symbol-color-blue_background</title><path class="cls-1" d="M157.88-1a28.35,28.35,0,0,0,0,56.69,65.81,65.81,0,0,1,0,131.62H50.14a28.35,28.35,0,0,0,0,56.69H157.88C225.22,244,280,189.05,280,121.5S225.22-1,157.88-1Z"/><path class="cls-2" d="M107.51,27.63A28.33,28.33,0,0,0,79.25-.71h-51a28.35,28.35,0,0,0,0,56.69h51A28.34,28.34,0,0,0,107.51,27.63Z"/><path class="cls-2" d="M185.47,121.75a28.35,28.35,0,0,0-28.26-28.37h-51a28.37,28.37,0,0,0,0,56.74h51A28.34,28.34,0,0,0,185.47,121.75Z"/></svg>