<svg id="Calque_1" data-name="Calque 1" xmlns="http://www.w3.org/2000/svg" viewBox="0 0 1291 300"><defs><style>.cls-1{fill:#fff;}.cls-2{fill:#2e3342;}</style></defs><title>wordmark-color-blue_background</title><path class="cls-1" d="M906.88,121.73a75.36,75.36,0,0,0-63.39-9.14,80,80,0,0,0-19.79,9.21,75.68,75.68,0,0,0-11.21,9.49,70.13,70.13,0,0,0-11.57-9.55,75.33,75.33,0,0,0-63.39-9.15,79.91,79.91,0,0,0-9,3.38v-6.65H684.29V280.44h44.22V184.36a29.33,29.33,0,0,1,2.39-11.78,31.73,31.73,0,0,1,6.69-9.88,31.33,31.33,0,0,1,10-6.69,30.4,30.4,0,0,1,12-2.41A29.26,29.26,0,0,1,771.29,156a31.69,31.69,0,0,1,16.57,16.59,29.36,29.36,0,0,1,2.39,11.78v96.08h44.22V184.36a29.33,29.33,0,0,1,2.39-11.78A31.32,31.32,0,0,1,853.52,156a30.44,30.44,0,0,1,12-2.41A29.26,29.26,0,0,1,877.25,156a31.69,31.69,0,0,1,16.57,16.59,29.36,29.36,0,0,1,2.39,11.78v96.08h44.22V184.36a73.63,73.63,0,0,0-9.15-36.08A75,75,0,0,0,906.88,121.73Z"/><path class="cls-1" d="M1284.16,161.58h0a86.42,86.42,0,0,0-45.82-46.17,87.14,87.14,0,0,0-67.28,0,87.08,87.08,0,0,0,0,160.11,87.08,87.08,0,0,0,67.28,0A86.39,86.39,0,0,0,1265.73,257a87.33,87.33,0,0,0,18.44-27.6,88.88,88.88,0,0,0,0-67.78Zm-79.31,75.56a40.28,40.28,0,0,1-16-3.23,41.31,41.31,0,0,1-13.2-8.92,43.87,43.87,0,0,1-9-13.44,40.8,40.8,0,0,1,0-32.15,44.29,44.29,0,0,1,9-13.44,41.55,41.55,0,0,1,13.2-8.93,41.24,41.24,0,0,1,32,0A41.55,41.55,0,0,1,1234,166a42,42,0,0,1,8.84,13.35,42.55,42.55,0,0,1,0,32.33h0A42,42,0,0,1,1234,225a41.31,41.31,0,0,1-13.2,8.92A40.27,40.27,0,0,1,1204.85,237.14Z"/><polygon class="cls-1" points="989.67 109.32 940.9 109.32 1009.85 280.44 1056.6 280.44 1022.32 190.27 989.67 109.32"/><path class="cls-2" d="M1101.8,111h0a22.27,22.27,0,0,0-28.93,12.4l-20.44,50.69a22.26,22.26,0,1,0,41.32,16.58L1114.2,140A22.33,22.33,0,0,0,1101.8,111Z"/><path class="cls-1" d="M637.83,134.61h0a89.42,89.42,0,0,0-27.41-18.44,85.63,85.63,0,0,0-67.12,0,86.08,86.08,0,0,0-45.72,46A85.45,85.45,0,0,0,490.77,196a84.28,84.28,0,0,0,6.83,33.65,86.68,86.68,0,0,0,45.8,45.86A83.89,83.89,0,0,0,577,282.33a86.41,86.41,0,0,0,20.39-2.4l2.41-.58V231.09l-4.57,2.31c-.69.36-1.38.7-2.1,1a40.84,40.84,0,0,1-32.26,0,43.19,43.19,0,0,1-13.26-9.06,43.85,43.85,0,0,1-9-13.37,39.77,39.77,0,0,1-3.29-16,40.51,40.51,0,0,1,3.29-16.3,43.85,43.85,0,0,1,9-13.37,43.28,43.28,0,0,1,13.26-9.07,41,41,0,0,1,32.26,0,43.28,43.28,0,0,1,13.26,9.07,44,44,0,0,1,9,13.37,40.25,40.25,0,0,1,3.26,15l0,85.72h44.55V196a86.42,86.42,0,0,0-25.42-61.37Z"/><path class="cls-1" d="M170.88,280.44V0H126.64V120a88.69,88.69,0,0,0-13-5.91,82.34,82.34,0,0,0-28.1-4.77,83.8,83.8,0,0,0-33.41,6.73A86.18,86.18,0,0,0,25,134.56a87.29,87.29,0,0,0-18.3,27.5A86.69,86.69,0,0,0,52.16,275.6a83.9,83.9,0,0,0,33.41,6.73,86.14,86.14,0,0,0,19.75-2.27l2.43-.57V231.18l-4.64,2.24c-.5.24-1,.49-1.53.71a40.81,40.81,0,0,1-31.73,0,41,41,0,0,1-13.11-8.9,43.63,43.63,0,0,1-9-13.39,40.74,40.74,0,0,1,0-32,43.7,43.7,0,0,1,9-13.38,41.19,41.19,0,0,1,13.11-8.9,40.81,40.81,0,0,1,31.73,0,41.33,41.33,0,0,1,13.11,8.89,42.2,42.2,0,0,1,8.79,13.19,39.93,39.93,0,0,1,3.11,13.81l0,78.79h0v8.24Z"/><path class="cls-1" d="M293.88,104.8c-19.71,0-31.8,1.56-40.41,5.2a90.65,90.65,0,0,0-16.54,9.1v-9.78h-44.3V280.44h44.3V195.11c0-12,4.24-22.32,12.92-31.43l.34-.34c8.63-8.65,15.73-12.6,46.85-12.6V104.8Z"/><path class="cls-1" d="M469.13,173.48a83,83,0,0,0-15.62-30.78,85.41,85.41,0,0,0-29.24-24.34,82.85,82.85,0,0,0-38.16-9,84.7,84.7,0,0,0-33.56,6.73,86.76,86.76,0,0,0,0,159.55,84.38,84.38,0,0,0,33.56,6.73,82.73,82.73,0,0,0,38.16-9,86.76,86.76,0,0,0,29.28-24.08c2.13-2.79,4.13-5.67,5.95-8.57a60.07,60.07,0,0,0,4.87-9.64H411.55a45.21,45.21,0,0,1-7.87,4.67,41.55,41.55,0,0,1-17.57,3.76,42.66,42.66,0,0,1-14.79-2.56,43.94,43.94,0,0,1-12.68-7.19,43.18,43.18,0,0,1-9.55-11,45.22,45.22,0,0,1-3.4-6.78H470.21l.86-4.65a62.63,62.63,0,0,0,1-11.45A82.92,82.92,0,0,0,469.13,173.48ZM351.79,169a44.18,44.18,0,0,1,10.8-10,41.94,41.94,0,0,1,23.52-6.8,42.52,42.52,0,0,1,19.09,4.41,44.67,44.67,0,0,1,15,12.12l.18.26Z"/></svg>